<svg xmlns="http://www.w3.org/2000/svg" width="100px" height="100px" viewBox="0 0 100 100" id="heroicon-announcement heroicon heroicon-lg">
    <g fill-rule="evenodd">
    	<g id="heroicon-announcement heroicon-lg">
        <path id="heroicon-announcement-bowl" fill="#FFFFFF" d="M88 9.98A82.6 82.6 0 0 1 46 26.6v28.78a82.6 82.6 0 0 1 42 16.63V9.98z" />
        <path id="heroicon-announcement-front" fill="#FFFFFF" d="M94 36V4a2 2 0 0 0-2-2h-2v78h2a2 2 0 0 0 2-2V46h2a2 2 0 0 0 2-2v-6a2 2 0 0 0-2-2h-2z" />
        <polygon id="heroicon-announcement-middle" fill="#FFFFFF" points="11 57 11 25 44 25 44 57 42 57 42 53 18 53 18.4 57" />
        <path id="heroicon-announcement-handle" fill="#FFFFFF" d="M37.55 71h2.54a2 2 0 0 0 1.86-2.74l-1.77-7.43-.18.03V55H20.21l.98 9.84c.14 1.33.63 2.31 1.37 2.9a2.9 2.9 0 0 0 1.64.6l.13.01c.25.01.52 0 .8-.06l6.05 27.4A3.1 3.1 0 0 0 34 98h4.98c1.01 0 1.65-.72 1.53-1.72L37.55 71z" />
        <path id="heroicon-announcement-back heroicon-component-fill" fill="#FFFFFF" d="M3 30H1v22h2v1a3 3 0 0 0 3 3h5V26H6a3 3 0 0 0-3 3v1z" />
        <path id="heroicon-shadows" fill="#000000" opacity="0.4" d="M46 55.4a82.6 82.6 0 0 1 42 16.62v-14A82.6 82.6 0 0 0 46 41.4v14zM26.99 74.72l-1.12-5.58c.33-.1.66-.22 1-.37l9.66-4.4.71 5.7L27 74.72zM10 31H8a1 1 0 1 0 0 2h2v-2zm0 6H8a1 1 0 1 0 0 2h2v-2zm0 6H8a1 1 0 1 0 0 2h2v-2zm0 6H8a1 1 0 1 0 0 2h2v-2zm30 8h4V41H12v16h8v4h20v-4zm49-16h6v37a3 3 0 0 1-3 3h-3V41z" />
        <path id="heroicon-outline" fill="#000000" d="M88 0h4a4 4 0 0 1 4 4v30a4 4 0 0 1 4 4v6a4 4 0 0 1-4 4v30a4 4 0 0 1-4 4h-4v-7.45A79.62 79.62 0 0 0 46 57.4V59h-4v4l1.8 4.51A4 4 0 0 1 40.1 73h-.48l2.88 23.04A3.44 3.44 0 0 1 39 100h-5a5.09 5.09 0 0 1-4.79-3.93l-5.14-25.73c-2.58-.16-4.55-2.13-4.87-5.3L18.6 59H10v-2H6a4 4 0 0 1-4-4H0V29h2a4 4 0 0 1 4-4h4v-2h36v1.6A79.62 79.62 0 0 0 88 7.46V0zm2 2h2a2 2 0 0 1 2 2v74a2 2 0 0 1-2 2h-2V2zm-2 7.98A82.6 82.6 0 0 1 46 26.6v28.78a82.6 82.6 0 0 1 42 16.63V9.98zM96 46a2 2 0 0 0 2-2v-6a2 2 0 0 0-2-2v10zM10 27H6a2 2 0 0 0-2 2v24c0 1.1.9 2 2 2h4v-3H8a2 2 0 1 1 0-4h2v-2H8a2 2 0 1 1 0-4h2v-2H8a2 2 0 1 1 0-4h2v-2H8a2 2 0 1 1 0-4h2v-3zm0 4H8a1 1 0 1 0 0 2h2v-2zm0 6H8a1 1 0 1 0 0 2h2v-2zm0 6H8a1 1 0 1 0 0 2h2v-2zm0 6H8a1 1 0 1 0 0 2h2v-2zm-8 2h1V31H2v20zm10-26h2v32h-2V25zm3 32V25h29v32h-2v-4H18l.4 4H15zm24.38 14h.71a2 2 0 0 0 1.86-2.74l-1.77-4.43-1.61.73.8 6.44zM24.2 68.35a2.9 2.9 0 0 1-1.64-.61c-.74-.59-1.23-1.57-1.37-2.9L20.21 55H40v6.71l-3.6 1.64-9.95 4.52c-.76.35-1.48.5-2.12.48h-.13zm6.98 27.33l-5.31-26.53c.33-.1.66-.22 1-.37l9.66-4.4 3.99 31.9c.12 1-.52 1.72-1.53 1.72h-4.98a3.1 3.1 0 0 1-2.83-2.32zM23 59a1 1 0 1 0 0-2 1 1 0 0 0 0 2zm15-1a1 1 0 1 1-2 0 1 1 0 0 1 2 0zm12-27.33a85.96 85.96 0 0 0 34-12.4v-1.19a84.98 84.98 0 0 1-34 12.58v1.01z" />
    </g>
    </g>
</svg>
