<svg xmlns="http://www.w3.org/2000/svg" width="60px" height="60px" viewBox="0 0 60 60" class="heroicon-monitor heroicon heroicon-sm">
    <g fill-rule="evenodd">
        <rect class="heroicon-monitor-edge heroicon-component-accent heroicon-component-fill" width="58" height="46" x="1" y="7" />
        <rect class="heroicon-monitor-screen heroicon-component-fill" width="50" height="38" x="5" y="11" />
        <rect class="heroicon-shadows" width="50" height="4" x="5" y="11" />
        <path class="heroicon-outline" d="M5 11h50v38H5V11zm12 1h8v1h-8v-1zm9 1v-1h8v1h-8zm8 1h-8v3.84l.95 2.84 3 9 .05.16.05-.16.23-.68h2.31L34 27.59V14zm0 16.41l-.3.3-.29.29h-1.69l-.77 2.32-.95 2.84-.95-2.84-1-3L26 24.16V46h8V30.41zm-9-9.57V14h-8v14.59l.41.41h2l.3.3L21 30.58l1.13-1.13L25 20.84zM17 31h1.59l1.7 1.7.71.71.7-.7 2-2 .17-.17.08-.22L25 27.16V46h-8V31zm-1-3.41V14H8v15h4.59l1.7-1.7.71-.71.7.7.3.3zM8 31h5.41l.3-.3L15 29.42l1 1V46H8V31zm-1-2V13h9v-1H6v17h1zm-1 2v17h10v-1H7V31H6zm29-1.59l2-2 3.3 3.3.29.29h2l.41.41V46h-8V29.41zm8-.41h-1.59l-3.7-3.7-.71-.71-.7.7-1.3 1.3V14h8v15zm1 3.41V46h8V31h-4.59l-1.7 1.7-.71.71-.7-.7-.3-.3zM52 29h-5.41l-.3.3L45 30.58l-1-1V14h8v15zm1 2v16h-9v1h10V31h-1zm1-2V12H44v1h9v16h1zM35 47h8v1h-8v-1zm8-34v-1h-8v1h8zm-9 35v-1h-8v1h8zm-9-1v1h-8v-1h8zM0 9a3 3 0 0 1 3-3h54a3 3 0 0 1 3 3v42a3 3 0 0 1-3 3H3a3 3 0 0 1-3-3V9zm3-1h54a1 1 0 0 1 1 1v42a1 1 0 0 1-1 1H3a1 1 0 0 1-1-1V9a1 1 0 0 1 1-1z" />
    </g>
</svg>
