<svg xmlns="http://www.w3.org/2000/svg" width="100px" height="100px" viewBox="0 0 100 100" class="heroicon-monitor heroicon heroicon-lg">
    <g fill-rule="evenodd">
        <rect class="heroicon-monitor-edge heroicon-component-accent heroicon-component-fill" width="98" height="78" x="1" y="11" rx="5" />
        <rect class="heroicon-monitor-screen heroicon-component-fill" width="86" height="66" x="7" y="17" />
        <rect class="heroicon-shadows" width="86" height="5" x="7" y="17" />
        <path class="heroicon-outline" d="M0 16a6 6 0 0 1 6-6h88a6 6 0 0 1 6 6v68a6 6 0 0 1-6 6H6a6 6 0 0 1-6-6V16zm6-4h88a4 4 0 0 1 4 4v68a4 4 0 0 1-4 4H6a4 4 0 0 1-4-4V16a4 4 0 0 1 4-4zm0 6c0-1.1.9-2 2-2h84a2 2 0 0 1 2 2v64a2 2 0 0 1-2 2H8a2 2 0 0 1-2-2V18zm2 0h16v1H9v30H8V18zm17 1v-1h16v1H25zm16 1H25v27.59l1-1L28.41 49h2L32 50.59l1.06-1.06L37 23.26l.99 6.6 3 19.98.01.08V20zm1 31.76V20h16v27.59l-5-5L46.59 49h-3.2L42 51.76zm-1 6.48l-.48.96-.5-3.04-1-6.01L37 36.75l-2.06 13.72L32 53.41 29.59 51h-2L26 49.41l-1 1V80h16V58.24zM42 80V56.24L44.62 51h2.8L53 45.41l5 5V80H42zm-1 1H25v1h16v-1zm1 1h16v-1H42v1zm0-63v-1h16v1H42zm17 0v-1h16v1H59zm0 1v28.59l.41.41h4L67 52.59 70.59 49h1.8L75 43.76V20H59zm0 31v29h16V48.24L73.62 51h-2.2L67 55.41 62.59 51H59zm16 30v1H59v-1h16zm1-35.24V20h14v29H77.62L76 45.76zM76 80V50.24l.38.76H90v29H76zm0 2h16V51h-1v30H76v1zm0-63v-1h16v31h-1V19H76zm-66 1h14v28.59l-.41.41H10V20zm0 31h14v29H10V51zm0 30h14v1H8V51h1v30h1z" />
    </g>
</svg>
