<svg xmlns="http://www.w3.org/2000/svg" width="100px" height="100px" viewBox="0 0 100 100" class="heroicon-lightbulb heroicon heroicon-lg">
    <g fill-rule="evenodd">
        <path class="heroicon-lightbulb-bulb heroicon-component-fill" d="M40 78h20a2 2 0 0 0 2-2v-6c0-1.63.84-3.67 2-4.83l.33-.33A33.75 33.75 0 0 1 58 67.05V65a31.97 31.97 0 0 0 24-31 32 32 0 1 0-40 31v2.06a33.74 33.74 0 0 1-6.33-2.2l.33.32c1.16 1.16 2 3.2 2 4.84v6c0 1.1.9 1.99 2 1.99z" />
        <path class="heroicon-lightbulb-screw heroicon-component-accent heroicon-component-fill" d="M40 79v4a2 2 0 1 0 0 4v2a2 2 0 1 0 0 4v1c0 1.1.8 2.4 1.8 2.9l4.4 2.2c1 .5 2.7.9 3.8.9 1.11 0 2.8-.4 3.8-.9l4.4-2.2c1-.5 1.8-1.8 1.8-2.9v-1a2 2 0 1 0 0-4v-2a2 2 0 1 0 0-4v-4H40z" />
        <path class="heroicon-lightbulb-source heroicon-component-accent heroicon-component-fill" d="M52 52h.5a1.5 1.5 0 1 0 0-3h-5a1.5 1.5 0 1 0 0 3h.5v8.54A4 4 0 0 0 46 64V79h8V64a4 4 0 0 0-2-3.47V52z" />
        <path class="heroicon-shadows" d="M76.35 55.49c.63-1.76 1.1-3.59 1.37-5.48a31.99 31.99 0 0 1-55.44 0c.28 1.89.74 3.72 1.37 5.48a34.2 34.2 0 0 0 3.77 3.93l7.16 7.16A5.56 5.56 0 0 1 36 70.01v.24A27.87 27.87 0 0 0 50 74c5.1 0 9.88-1.36 14-3.75v-.24c0-1.1.63-2.64 1.42-3.43l7.16-7.16a34.2 34.2 0 0 0 3.77-3.93zM42 80h16v2H42v-2zm0 7h16v1H42v-1zm0 6h16v1H42v-1z" />
        <path class="heroicon-outline" d="M24.95 46.52A28 28 0 0 1 50 6v1a27 27 0 0 0-24.15 39.08l-.9.44zM41 33.56c-.28.14-.64.21-.99.21v-1c.2 0 .4-.03.55-.1L43 31.44a2.43 2.43 0 0 1 1.98 0l2.46 1.23c.29.14.81.14 1.1 0L51 31.44a2.43 2.43 0 0 1 1.98 0l2.46 1.23c.29.14.81.14 1.1 0L59 31.44c.28-.14.63-.21.99-.21v1c-.2 0-.4.03-.55.1L57 33.56c-.56.29-1.42.29-1.98 0l-2.46-1.23c-.29-.14-.81-.14-1.1 0L49 33.56c-.56.29-1.42.29-1.98 0l-2.46-1.23c-.29-.14-.81-.14-1.1 0L41 33.56zM64 70.01c0-1.1.63-2.64 1.42-3.43l7.16-7.16a34 34 0 1 0-45.16 0l7.16 7.16A5.56 5.56 0 0 1 36 70.01v6A4 4 0 0 0 40 80v3a2 2 0 1 0 0 4v2a2 2 0 1 0 0 4v1c0 1.1.8 2.4 1.8 2.9l4.4 2.2c1 .5 2.7.9 3.8.9 1.11 0 2.8-.4 3.8-.9l4.4-2.2c1-.5 1.8-1.8 1.8-2.9v-1a2 2 0 1 0 0-4v-2a2 2 0 1 0 0-4v-3a4 4 0 0 0 4-4v-6zM58 89v-2H42v2h16zm-16 4v1c0 .35.37.95.69 1.1l1.78.9h11.06l1.78-.9c.32-.15.69-.75.69-1.1v-1H42zm5.1 4.31l-.63-.31h7.06l-.63.31c-.72.36-2.1.69-2.9.69-.8 0-2.18-.33-2.9-.69zM40 78h6V68L36 32h3v1h-1.68L46 64.26V64a4 4 0 0 1 2-3.47V52h-.5a1.5 1.5 0 0 1 0-3h5a1.5 1.5 0 0 1 0 3H52v8.54A4 4 0 0 1 54 64v.26L62.68 33H61v-1h3L54 68v10h6a2 2 0 0 0 2-2v-6c0-1.63.84-3.67 2-4.83l.33-.33A33.75 33.75 0 0 1 58 67.05V65a31.97 31.97 0 0 0 24-31 32 32 0 1 0-40 31v2.06a33.74 33.74 0 0 1-6.33-2.2l.33.32c1.16 1.16 2 3.2 2 4.84v6c0 1.1.9 1.99 2 1.99zm11-17.87V52h-2v8.13a4.01 4.01 0 0 1 2 0zM53 64v14h-1V64a2 2 0 1 0-4 0v14h-1V64a3 3 0 1 1 6 0zm-4 14V64a1 1 0 1 1 2 0v14h-2zm-7 5v-3h16v3H42zm-3 2a1 1 0 0 1 1-1h20a1 1 0 1 1 0 2H40a1 1 0 0 1-1-1zm0 6a1 1 0 0 1 1-1h20a1 1 0 1 1 0 2H40a1 1 0 0 1-1-1zm8.5-41a.5.5 0 0 0 0 1h5a.5.5 0 0 0 0-1h-5z" />
    </g>
</svg>
