<svg xmlns="http://www.w3.org/2000/svg" width="60px" height="60px" viewBox="0 0 60 60" class="heroicon-buoy heroicon heroicon-sm">
    <g fill-rule="evenodd">
        <path class="heroicon-buoy-rope heroicon-component-accent heroicon-component-fill" d="M14 3h7l.14.43c-.52.17-1.04.37-1.55.57H14A10 10 0 0 0 4 14v5.59c-.2.5-.4 1.03-.57 1.55L3 21v-7A11 11 0 0 1 14 3zM3 46v-7l.43-.14c.17.52.37 1.04.57 1.55V46a10 10 0 0 0 10 10h5.59c.5.2 1.03.4 1.55.57L21 57h-7A11 11 0 0 1 3 46zm43 11h-7l-.14-.43c.52-.17 1.04-.37 1.55-.57H46a10 10 0 0 0 10-10v-5.59c.2-.5.4-1.03.57-1.55L57 39v7a11 11 0 0 1-11 11zm11-43v7l-.43.14A27.9 27.9 0 0 0 56 19.6V14A10 10 0 0 0 46 4h-5.59c-.5-.2-1.03-.4-1.55-.57L39 3h7a11 11 0 0 1 11 11z" />
        <path class="heroicon-buoy-floater heroicon-component-fill" d="M5.33 38.22a26.07 26.07 0 0 0 16.45 16.45l3.16-9.49a16.04 16.04 0 0 1-10.12-10.12l-9.5 3.16zm9.49-13.28a16.04 16.04 0 0 1 10.12-10.12l-3.16-9.5A26.07 26.07 0 0 0 5.33 21.79l9.49 3.16zm30.36 0a16.04 16.04 0 0 0-10.12-10.12l3.16-9.5a26.07 26.07 0 0 1 16.45 16.46l-9.49 3.16zM35.06 45.18a16.04 16.04 0 0 0 10.12-10.12l9.5 3.16a26.07 26.07 0 0 1-16.46 16.45l-3.16-9.49z" />
        <path class="heroicon-buoy-markers heroicon-component-accent heroicon-component-fill" d="M30 2c2.44 0 4.72.29 6.94.86l-4.46 13.37C31.66 16.1 30.82 16 30 16c-.82 0-1.66.09-2.48.23L23.06 2.86c2.22-.57 4.5-.87 6.94-.86zm27.14 34.94c.57-2.22.87-4.5.86-6.94 0-2.44-.29-4.72-.86-6.94l-13.37 4.46c.14.82.23 1.66.23 2.48 0 .82-.09 1.66-.23 2.48l13.37 4.46zm-34.08 20.2c2.22.57 4.5.87 6.94.86 2.44 0 4.72-.29 6.94-.86l-4.46-13.37c-.82.14-1.66.23-2.48.23-.82 0-1.66-.09-2.48-.23l-4.46 13.37zM2 30c0-2.44.29-4.72.86-6.94l13.37 4.46c-.14.82-.23 1.66-.23 2.48 0 .82.09 1.66.23 2.48L2.86 36.94c-.57-2.22-.87-4.5-.86-6.94z" />
        <path class="heroicon-shadows" d="M6.38 40.87A26.06 26.06 0 0 0 23.7 55.23l-.64 1.91c2.22.57 4.5.87 6.94.86 2.44 0 4.72-.29 6.94-.86l-.64-1.9A26.06 26.06 0 0 0 55.23 36.3l-.84-.28c-.23.63-.49 1.25-.77 1.85l-8.44-2.8c-.3.9-.68 1.78-1.14 2.61l8.23 2.74a25.99 25.99 0 0 1-44.54 0l8.23-2.74a15.9 15.9 0 0 1-1.14-2.62l-8.44 2.81c-.28-.6-.54-1.22-.77-1.85l-.84.28a25.8 25.8 0 0 0 1.6 4.57zM33.12 14.3A16.02 16.02 0 0 1 45.7 26.88l.3-.1a16 16 0 0 0-32 0l.3.1A16.02 16.02 0 0 1 26.88 14.3l.64 1.93c.82-.14 1.66-.23 2.48-.23.82 0 1.66.09 2.48.23l.64-1.93z" />
        <path class="heroicon-outline" d="M30 4c1.75 0 3.45.17 5.1.5l-.2.98a25.12 25.12 0 0 0-9.8 0l-.2-.98c1.65-.33 3.35-.5 5.1-.5zm26 26c0 1.75-.17 3.45-.5 5.1l-.98-.2a25.12 25.12 0 0 0 0-9.8l.98-.2c.33 1.65.5 3.35.5 5.1zM30 56c-1.75 0-3.45-.17-5.1-.5l.2-.98a25.12 25.12 0 0 0 9.8 0l.2.98c-1.65.33-3.35.5-5.1.5zM4 30c0-1.75.17-3.45.5-5.1l.98.2a25.12 25.12 0 0 0 0 9.8l-.98.2C4.17 33.45 4 31.75 4 30zM39.49 1.53A29.77 29.77 0 0 0 30 0a30.05 30.05 0 0 0-9.49 1.53l.16.47H14A12 12 0 0 0 2 14v6.67l-.47-.16A29.8 29.8 0 0 0 0 30a30.05 30.05 0 0 0 1.53 9.49l.47-.16V46a12 12 0 0 0 12 12h6.67l-.16.47A29.75 29.75 0 0 0 30 60a30.05 30.05 0 0 0 9.49-1.53l-.16-.47H46a12 12 0 0 0 12-12v-6.67l.47.16A29.77 29.77 0 0 0 60 30a30.05 30.05 0 0 0-1.53-9.49l-.47.16V14A12 12 0 0 0 46 2h-6.67l.16-.47zM14 3h7l.14.43c-.52.17-1.04.37-1.55.57H14A10 10 0 0 0 4 14v5.59c-.2.5-.4 1.03-.57 1.55L3 21v-7A11 11 0 0 1 14 3zm0 2h3.38A28.12 28.12 0 0 0 5 17.38V14a9 9 0 0 1 9-9zM3 46v-7l.43-.14c.17.52.37 1.04.57 1.55V46a10 10 0 0 0 10 10h5.59c.5.2 1.03.4 1.55.57L21 57h-7A11 11 0 0 1 3 46zm2 0v-3.38A28.12 28.12 0 0 0 17.38 55H14a9 9 0 0 1-9-9zm41 11h-7l-.14-.43c.52-.17 1.04-.37 1.55-.57H46a10 10 0 0 0 10-10v-5.59c.2-.5.4-1.03.57-1.55L57 39v7a11 11 0 0 1-11 11zm0-2h-3.38A28.12 28.12 0 0 0 55 42.62V46a9 9 0 0 1-9 9zm11-41v7l-.43.14A27.9 27.9 0 0 0 56 19.6V14A10 10 0 0 0 46 4h-5.59c-.5-.2-1.03-.4-1.55-.57L39 3h7a11 11 0 0 1 11 11zm-2 0v3.38A28.12 28.12 0 0 0 42.62 5H46a9 9 0 0 1 9 9zM5.33 38.22a26.07 26.07 0 0 0 16.45 16.45l3.16-9.49a16.04 16.04 0 0 1-10.12-10.12l-9.5 3.16zm11.38-3.8a14.04 14.04 0 0 0 8.86 8.87l.63-1.9a11.99 11.99 0 0 0 7.6 0l.63 1.9a14.04 14.04 0 0 0 8.86-8.86l-1.9-.63a11.99 11.99 0 0 0 0-7.6l1.9-.63a14.04 14.04 0 0 0-8.86-8.86l-.63 1.9a11.99 11.99 0 0 0-7.6 0l-.63-1.9a14.04 14.04 0 0 0-8.86 8.86l1.9.63a11.99 11.99 0 0 0 0 7.6l-1.9.63zm-1.9-9.48a16.04 16.04 0 0 1 10.13-10.12l-3.16-9.5A26.07 26.07 0 0 0 5.33 21.79l9.49 3.16zm30.37 0a16.04 16.04 0 0 0-10.12-10.12l3.16-9.5a26.07 26.07 0 0 1 16.45 16.46l-9.49 3.16zM35.06 45.18a16.04 16.04 0 0 0 10.12-10.12l9.5 3.16a26.07 26.07 0 0 1-16.46 16.45l-3.16-9.49zM30 2c2.44 0 4.72.29 6.94.86l-4.46 13.37C31.66 16.1 30.82 16 30 16c-.82 0-1.66.09-2.48.23L23.06 2.86c2.22-.57 4.5-.87 6.94-.86zm27.14 34.94c.57-2.22.87-4.5.86-6.94 0-2.44-.29-4.72-.86-6.94l-13.37 4.46c.14.82.23 1.66.23 2.48 0 .82-.09 1.66-.23 2.48l13.37 4.46zm-34.08 20.2c2.22.57 4.5.87 6.94.86 2.44 0 4.72-.29 6.94-.86l-4.46-13.37c-.82.14-1.66.23-2.48.23-.82 0-1.66-.09-2.48-.23l-4.46 13.37zM2 30c0-2.44.29-4.72.86-6.94l13.37 4.46c-.14.82-.23 1.66-.23 2.48 0 .82.09 1.66.23 2.48L2.86 36.94c-.57-2.22-.87-4.5-.86-6.94z" />
    </g>
</svg>
