<svg xmlns="http://www.w3.org/2000/svg" viewBox="0 0 40 40"><g id="Page-1" fill="none" fill-rule="evenodd"><g id="icon-twitter" fill="#C3C7C6" fill-rule="nonzero"><path id="Shape" d="M12.58 36.5c15.1 0 23.35-12.5 23.35-23.35 0-.35 0-.7-.02-1.06 1.6-1.16 2.99-2.6 4.09-4.25-1.5.67-3.09 1.1-4.71 1.3a8.24 8.24 0 0 0 3.6-4.54 16.45 16.45 0 0 1-5.2 1.99 8.21 8.21 0 0 0-14 7.48A23.3 23.3 0 0 1 2.8 5.5a8.21 8.21 0 0 0 2.53 10.95 8.15 8.15 0 0 1-3.72-1.02v.1c0 3.9 2.75 7.27 6.58 8.04a8.2 8.2 0 0 1-3.7.15 8.22 8.22 0 0 0 7.67 5.7A16.47 16.47 0 0 1 0 32.81a23.23 23.23 0 0 0 12.58 3.68"/></g></g></svg>