<svg xmlns="http://www.w3.org/2000/svg" viewBox="0 0 40 40"><g id="Page-1" fill="none" fill-rule="evenodd"><g id="icon-pinterest" fill="#C3C7C6"><path id="Fill-4-Copy" d="M20 0a20 20 0 0 0-7.29 38.62c-.17-1.58-.33-4 .07-5.73l2.35-9.94s-.6-1.2-.6-2.97c0-2.78 1.61-4.86 3.62-4.86 1.7 0 2.53 1.28 2.53 2.82 0 1.71-1.1 4.28-1.66 6.66-.47 1.99 1 3.6 2.96 3.6 3.56 0 6.29-3.74 6.29-9.15 0-4.79-3.44-8.14-8.35-8.14-5.7 0-9.04 4.27-9.04 8.68 0 1.72.67 3.57 1.5 4.57.16.2.18.37.13.57L11.96 27c-.1.37-.3.44-.67.27-2.5-1.17-4.06-4.82-4.06-7.75 0-6.31 4.58-12.1 13.21-12.1 6.94 0 12.33 4.94 12.33 11.55 0 6.89-4.34 12.44-10.38 12.44-2.02 0-3.93-1.06-4.58-2.3l-1.25 4.75a22.35 22.35 0 0 1-2.48 5.25A20 20 0 0 0 40 20 20 20 0 0 0 20 0"/></g></g></svg>