<svg xmlns="http://www.w3.org/2000/svg" viewBox="0 0 54 66"><g id="Page-1" fill="none" fill-rule="evenodd"><g id="Artboard-2-Copy" fill="#7ACFC0" transform="translate(-573 -105)"><path id="Combined-Shape" d="M627 144c0 4.97-3.36 11.24-7.49 13.99L600 171l-19.51-13.01c-4.14-2.76-7.49-9.02-7.49-13.99v-31.78a53.75 53.75 0 0 1 27-7.22c9.84 0 19.06 2.63 27 7.22V144zm-27-34.5c-7.94 0-15.6 1.87-22.5 5.4V144c0 3.47 2.6 8.32 5.48 10.25L600 165.59l17.02-11.34c2.87-1.92 5.48-6.79 5.48-10.25v-29.1a49.27 49.27 0 0 0-22.5-5.4zm-4.5 4.72v13.28h9v-13.28c4.68.47 9.22 1.65 13.5 3.52V144c0 1.95-1.85 5.42-3.48 6.5l-10.02 6.68V136.5h-9v20.68l-10.02-6.68c-1.63-1.08-3.48-4.54-3.48-6.5v-26.26a44.65 44.65 0 0 1 13.5-3.52z"/></g></g></svg>